<mxfile host="65bd71144e">
    <diagram name="Page-1" id="TDQLK0lnuNTKSgB7Ba_7">
        <mxGraphModel dx="746" dy="563" grid="1" gridSize="10" guides="1" tooltips="1" connect="1" arrows="1" fold="1" page="1" pageScale="1" pageWidth="850" pageHeight="1100" math="0" shadow="0">
            <root>
                <mxCell id="0"/>
                <mxCell id="1" parent="0"/>
                <mxCell id="3" value="" style="edgeStyle=none;html=1;" edge="1" parent="1" source="bfVfXw2yRLBhBgMpB63c-1" target="bfVfXw2yRLBhBgMpB63c-3">
                    <mxGeometry relative="1" as="geometry"/>
                </mxCell>
                <mxCell id="bfVfXw2yRLBhBgMpB63c-1" value="เริ่มต้น" style="ellipse;whiteSpace=wrap;html=1;" parent="1" vertex="1">
                    <mxGeometry x="360" y="160" width="120" height="80" as="geometry"/>
                </mxCell>
                <mxCell id="2" value="" style="edgeStyle=none;html=1;" edge="1" parent="1" source="bfVfXw2yRLBhBgMpB63c-3" target="bfVfXw2yRLBhBgMpB63c-4">
                    <mxGeometry relative="1" as="geometry"/>
                </mxCell>
                <mxCell id="bfVfXw2yRLBhBgMpB63c-3" value="&lt;div&gt;&amp;nbsp; &amp;nbsp; &amp;nbsp; &amp;nbsp; &amp;nbsp; &amp;nbsp; &amp;nbsp;Hello, I'm Javis (RMUTL-Version).&lt;/div&gt;&lt;div&gt;&amp;nbsp; &amp;nbsp; &amp;nbsp; &amp;nbsp; &amp;nbsp; &amp;nbsp; &amp;nbsp;This is my first time to coding with C language.&lt;/div&gt;&lt;div&gt;&amp;nbsp; &amp;nbsp; &amp;nbsp; &amp;nbsp; &amp;nbsp; &amp;nbsp; &amp;nbsp;Today is my birthday.&lt;/div&gt;" style="shape=parallelogram;perimeter=parallelogramPerimeter;whiteSpace=wrap;html=1;fixedSize=1;align=left;" parent="1" vertex="1">
                    <mxGeometry x="270" y="320" width="310" height="100" as="geometry"/>
                </mxCell>
                <mxCell id="bfVfXw2yRLBhBgMpB63c-4" value="สิ้นสุด" style="ellipse;whiteSpace=wrap;html=1;" parent="1" vertex="1">
                    <mxGeometry x="365" y="490" width="120" height="80" as="geometry"/>
                </mxCell>
            </root>
        </mxGraphModel>
    </diagram>
</mxfile>